<svg xmlns="http://www.w3.org/2000/svg" viewBox="0 0 49 49" shape-rendering="crispEdges" role="img" aria-label="QR code do grupo do Copolão no WhatsApp"><rect width="49" height="49" fill="#fff"/><path fill="#05070A" d="M2 2h1v1h-1zM3 2h1v1h-1zM4 2h1v1h-1zM5 2h1v1h-1zM6 2h1v1h-1zM7 2h1v1h-1zM8 2h1v1h-1zM12 2h1v1h-1zM13 2h1v1h-1zM14 2h1v1h-1zM16 2h1v1h-1zM17 2h1v1h-1zM22 2h1v1h-1zM23 2h1v1h-1zM30 2h1v1h-1zM32 2h1v1h-1zM34 2h1v1h-1zM38 2h1v1h-1zM40 2h1v1h-1zM41 2h1v1h-1zM42 2h1v1h-1zM43 2h1v1h-1zM44 2h1v1h-1zM45 2h1v1h-1zM46 2h1v1h-1zM2 3h1v1h-1zM8 3h1v1h-1zM12 3h1v1h-1zM14 3h1v1h-1zM16 3h1v1h-1zM17 3h1v1h-1zM18 3h1v1h-1zM20 3h1v1h-1zM21 3h1v1h-1zM22 3h1v1h-1zM23 3h1v1h-1zM24 3h1v1h-1zM25 3h1v1h-1zM31 3h1v1h-1zM33 3h1v1h-1zM34 3h1v1h-1zM37 3h1v1h-1zM40 3h1v1h-1zM46 3h1v1h-1zM2 4h1v1h-1zM4 4h1v1h-1zM5 4h1v1h-1zM6 4h1v1h-1zM8 4h1v1h-1zM10 4h1v1h-1zM12 4h1v1h-1zM15 4h1v1h-1zM17 4h1v1h-1zM19 4h1v1h-1zM20 4h1v1h-1zM24 4h1v1h-1zM27 4h1v1h-1zM28 4h1v1h-1zM30 4h1v1h-1zM31 4h1v1h-1zM34 4h1v1h-1zM35 4h1v1h-1zM37 4h1v1h-1zM40 4h1v1h-1zM42 4h1v1h-1zM43 4h1v1h-1zM44 4h1v1h-1zM46 4h1v1h-1zM2 5h1v1h-1zM4 5h1v1h-1zM5 5h1v1h-1zM6 5h1v1h-1zM8 5h1v1h-1zM10 5h1v1h-1zM11 5h1v1h-1zM12 5h1v1h-1zM15 5h1v1h-1zM16 5h1v1h-1zM21 5h1v1h-1zM22 5h1v1h-1zM26 5h1v1h-1zM27 5h1v1h-1zM28 5h1v1h-1zM31 5h1v1h-1zM34 5h1v1h-1zM35 5h1v1h-1zM37 5h1v1h-1zM38 5h1v1h-1zM40 5h1v1h-1zM42 5h1v1h-1zM43 5h1v1h-1zM44 5h1v1h-1zM46 5h1v1h-1zM2 6h1v1h-1zM4 6h1v1h-1zM5 6h1v1h-1zM6 6h1v1h-1zM8 6h1v1h-1zM11 6h1v1h-1zM13 6h1v1h-1zM14 6h1v1h-1zM20 6h1v1h-1zM22 6h1v1h-1zM23 6h1v1h-1zM24 6h1v1h-1zM25 6h1v1h-1zM26 6h1v1h-1zM27 6h1v1h-1zM28 6h1v1h-1zM30 6h1v1h-1zM32 6h1v1h-1zM33 6h1v1h-1zM34 6h1v1h-1zM36 6h1v1h-1zM37 6h1v1h-1zM38 6h1v1h-1zM40 6h1v1h-1zM42 6h1v1h-1zM43 6h1v1h-1zM44 6h1v1h-1zM46 6h1v1h-1zM2 7h1v1h-1zM8 7h1v1h-1zM14 7h1v1h-1zM16 7h1v1h-1zM17 7h1v1h-1zM18 7h1v1h-1zM19 7h1v1h-1zM22 7h1v1h-1zM26 7h1v1h-1zM28 7h1v1h-1zM29 7h1v1h-1zM31 7h1v1h-1zM33 7h1v1h-1zM34 7h1v1h-1zM40 7h1v1h-1zM46 7h1v1h-1zM2 8h1v1h-1zM3 8h1v1h-1zM4 8h1v1h-1zM5 8h1v1h-1zM6 8h1v1h-1zM7 8h1v1h-1zM8 8h1v1h-1zM10 8h1v1h-1zM12 8h1v1h-1zM14 8h1v1h-1zM16 8h1v1h-1zM18 8h1v1h-1zM20 8h1v1h-1zM22 8h1v1h-1zM24 8h1v1h-1zM26 8h1v1h-1zM28 8h1v1h-1zM30 8h1v1h-1zM32 8h1v1h-1zM34 8h1v1h-1zM36 8h1v1h-1zM38 8h1v1h-1zM40 8h1v1h-1zM41 8h1v1h-1zM42 8h1v1h-1zM43 8h1v1h-1zM44 8h1v1h-1zM45 8h1v1h-1zM46 8h1v1h-1zM11 9h1v1h-1zM16 9h1v1h-1zM18 9h1v1h-1zM22 9h1v1h-1zM26 9h1v1h-1zM27 9h1v1h-1zM29 9h1v1h-1zM31 9h1v1h-1zM35 9h1v1h-1zM36 9h1v1h-1zM37 9h1v1h-1zM38 9h1v1h-1zM5 10h1v1h-1zM6 10h1v1h-1zM8 10h1v1h-1zM9 10h1v1h-1zM12 10h1v1h-1zM13 10h1v1h-1zM14 10h1v1h-1zM16 10h1v1h-1zM17 10h1v1h-1zM20 10h1v1h-1zM22 10h1v1h-1zM23 10h1v1h-1zM24 10h1v1h-1zM25 10h1v1h-1zM26 10h1v1h-1zM28 10h1v1h-1zM29 10h1v1h-1zM37 10h1v1h-1zM38 10h1v1h-1zM43 10h1v1h-1zM44 10h1v1h-1zM2 11h1v1h-1zM13 11h1v1h-1zM14 11h1v1h-1zM16 11h1v1h-1zM17 11h1v1h-1zM18 11h1v1h-1zM23 11h1v1h-1zM25 11h1v1h-1zM28 11h1v1h-1zM29 11h1v1h-1zM31 11h1v1h-1zM32 11h1v1h-1zM33 11h1v1h-1zM36 11h1v1h-1zM37 11h1v1h-1zM38 11h1v1h-1zM40 11h1v1h-1zM42 11h1v1h-1zM44 11h1v1h-1zM45 11h1v1h-1zM2 12h1v1h-1zM3 12h1v1h-1zM8 12h1v1h-1zM10 12h1v1h-1zM12 12h1v1h-1zM13 12h1v1h-1zM15 12h1v1h-1zM19 12h1v1h-1zM23 12h1v1h-1zM24 12h1v1h-1zM25 12h1v1h-1zM28 12h1v1h-1zM29 12h1v1h-1zM30 12h1v1h-1zM31 12h1v1h-1zM32 12h1v1h-1zM33 12h1v1h-1zM35 12h1v1h-1zM36 12h1v1h-1zM39 12h1v1h-1zM41 12h1v1h-1zM45 12h1v1h-1zM46 12h1v1h-1zM2 13h1v1h-1zM3 13h1v1h-1zM4 13h1v1h-1zM5 13h1v1h-1zM9 13h1v1h-1zM10 13h1v1h-1zM11 13h1v1h-1zM12 13h1v1h-1zM15 13h1v1h-1zM16 13h1v1h-1zM17 13h1v1h-1zM18 13h1v1h-1zM19 13h1v1h-1zM20 13h1v1h-1zM22 13h1v1h-1zM27 13h1v1h-1zM29 13h1v1h-1zM30 13h1v1h-1zM31 13h1v1h-1zM32 13h1v1h-1zM36 13h1v1h-1zM38 13h1v1h-1zM41 13h1v1h-1zM44 13h1v1h-1zM2 14h1v1h-1zM3 14h1v1h-1zM4 14h1v1h-1zM5 14h1v1h-1zM8 14h1v1h-1zM9 14h1v1h-1zM10 14h1v1h-1zM11 14h1v1h-1zM12 14h1v1h-1zM14 14h1v1h-1zM15 14h1v1h-1zM16 14h1v1h-1zM17 14h1v1h-1zM18 14h1v1h-1zM20 14h1v1h-1zM21 14h1v1h-1zM22 14h1v1h-1zM23 14h1v1h-1zM24 14h1v1h-1zM25 14h1v1h-1zM27 14h1v1h-1zM30 14h1v1h-1zM34 14h1v1h-1zM35 14h1v1h-1zM36 14h1v1h-1zM39 14h1v1h-1zM40 14h1v1h-1zM42 14h1v1h-1zM43 14h1v1h-1zM46 14h1v1h-1zM3 15h1v1h-1zM4 15h1v1h-1zM6 15h1v1h-1zM9 15h1v1h-1zM14 15h1v1h-1zM17 15h1v1h-1zM20 15h1v1h-1zM22 15h1v1h-1zM23 15h1v1h-1zM24 15h1v1h-1zM27 15h1v1h-1zM28 15h1v1h-1zM32 15h1v1h-1zM34 15h1v1h-1zM35 15h1v1h-1zM38 15h1v1h-1zM40 15h1v1h-1zM41 15h1v1h-1zM45 15h1v1h-1zM46 15h1v1h-1zM2 16h1v1h-1zM4 16h1v1h-1zM5 16h1v1h-1zM8 16h1v1h-1zM9 16h1v1h-1zM14 16h1v1h-1zM15 16h1v1h-1zM16 16h1v1h-1zM19 16h1v1h-1zM21 16h1v1h-1zM22 16h1v1h-1zM26 16h1v1h-1zM27 16h1v1h-1zM31 16h1v1h-1zM33 16h1v1h-1zM34 16h1v1h-1zM37 16h1v1h-1zM40 16h1v1h-1zM41 16h1v1h-1zM42 16h1v1h-1zM44 16h1v1h-1zM2 17h1v1h-1zM7 17h1v1h-1zM9 17h1v1h-1zM11 17h1v1h-1zM15 17h1v1h-1zM17 17h1v1h-1zM21 17h1v1h-1zM22 17h1v1h-1zM24 17h1v1h-1zM25 17h1v1h-1zM29 17h1v1h-1zM32 17h1v1h-1zM36 17h1v1h-1zM39 17h1v1h-1zM40 17h1v1h-1zM41 17h1v1h-1zM42 17h1v1h-1zM43 17h1v1h-1zM44 17h1v1h-1zM45 17h1v1h-1zM2 18h1v1h-1zM3 18h1v1h-1zM5 18h1v1h-1zM6 18h1v1h-1zM8 18h1v1h-1zM12 18h1v1h-1zM13 18h1v1h-1zM14 18h1v1h-1zM15 18h1v1h-1zM18 18h1v1h-1zM19 18h1v1h-1zM20 18h1v1h-1zM21 18h1v1h-1zM22 18h1v1h-1zM23 18h1v1h-1zM24 18h1v1h-1zM26 18h1v1h-1zM27 18h1v1h-1zM29 18h1v1h-1zM32 18h1v1h-1zM33 18h1v1h-1zM34 18h1v1h-1zM36 18h1v1h-1zM40 18h1v1h-1zM45 18h1v1h-1zM2 19h1v1h-1zM3 19h1v1h-1zM6 19h1v1h-1zM7 19h1v1h-1zM9 19h1v1h-1zM10 19h1v1h-1zM11 19h1v1h-1zM15 19h1v1h-1zM17 19h1v1h-1zM18 19h1v1h-1zM20 19h1v1h-1zM24 19h1v1h-1zM25 19h1v1h-1zM26 19h1v1h-1zM29 19h1v1h-1zM31 19h1v1h-1zM32 19h1v1h-1zM33 19h1v1h-1zM34 19h1v1h-1zM35 19h1v1h-1zM36 19h1v1h-1zM38 19h1v1h-1zM39 19h1v1h-1zM41 19h1v1h-1zM44 19h1v1h-1zM45 19h1v1h-1zM46 19h1v1h-1zM4 20h1v1h-1zM8 20h1v1h-1zM11 20h1v1h-1zM15 20h1v1h-1zM16 20h1v1h-1zM17 20h1v1h-1zM20 20h1v1h-1zM21 20h1v1h-1zM23 20h1v1h-1zM28 20h1v1h-1zM31 20h1v1h-1zM32 20h1v1h-1zM33 20h1v1h-1zM34 20h1v1h-1zM36 20h1v1h-1zM38 20h1v1h-1zM41 20h1v1h-1zM46 20h1v1h-1zM3 21h1v1h-1zM4 21h1v1h-1zM6 21h1v1h-1zM7 21h1v1h-1zM12 21h1v1h-1zM13 21h1v1h-1zM15 21h1v1h-1zM16 21h1v1h-1zM17 21h1v1h-1zM20 21h1v1h-1zM21 21h1v1h-1zM23 21h1v1h-1zM27 21h1v1h-1zM29 21h1v1h-1zM30 21h1v1h-1zM31 21h1v1h-1zM33 21h1v1h-1zM36 21h1v1h-1zM38 21h1v1h-1zM40 21h1v1h-1zM41 21h1v1h-1zM42 21h1v1h-1zM43 21h1v1h-1zM44 21h1v1h-1zM45 21h1v1h-1zM3 22h1v1h-1zM4 22h1v1h-1zM6 22h1v1h-1zM7 22h1v1h-1zM8 22h1v1h-1zM9 22h1v1h-1zM10 22h1v1h-1zM13 22h1v1h-1zM14 22h1v1h-1zM15 22h1v1h-1zM16 22h1v1h-1zM19 22h1v1h-1zM21 22h1v1h-1zM22 22h1v1h-1zM23 22h1v1h-1zM24 22h1v1h-1zM25 22h1v1h-1zM26 22h1v1h-1zM27 22h1v1h-1zM28 22h1v1h-1zM29 22h1v1h-1zM35 22h1v1h-1zM36 22h1v1h-1zM38 22h1v1h-1zM39 22h1v1h-1zM40 22h1v1h-1zM41 22h1v1h-1zM42 22h1v1h-1zM46 22h1v1h-1zM4 23h1v1h-1zM5 23h1v1h-1zM6 23h1v1h-1zM10 23h1v1h-1zM11 23h1v1h-1zM13 23h1v1h-1zM14 23h1v1h-1zM16 23h1v1h-1zM18 23h1v1h-1zM20 23h1v1h-1zM22 23h1v1h-1zM26 23h1v1h-1zM27 23h1v1h-1zM29 23h1v1h-1zM31 23h1v1h-1zM34 23h1v1h-1zM36 23h1v1h-1zM37 23h1v1h-1zM38 23h1v1h-1zM42 23h1v1h-1zM43 23h1v1h-1zM44 23h1v1h-1zM2 24h1v1h-1zM3 24h1v1h-1zM6 24h1v1h-1zM8 24h1v1h-1zM10 24h1v1h-1zM13 24h1v1h-1zM15 24h1v1h-1zM18 24h1v1h-1zM19 24h1v1h-1zM21 24h1v1h-1zM22 24h1v1h-1zM24 24h1v1h-1zM26 24h1v1h-1zM29 24h1v1h-1zM31 24h1v1h-1zM32 24h1v1h-1zM36 24h1v1h-1zM37 24h1v1h-1zM38 24h1v1h-1zM40 24h1v1h-1zM42 24h1v1h-1zM43 24h1v1h-1zM45 24h1v1h-1zM46 24h1v1h-1zM3 25h1v1h-1zM6 25h1v1h-1zM10 25h1v1h-1zM11 25h1v1h-1zM15 25h1v1h-1zM17 25h1v1h-1zM20 25h1v1h-1zM22 25h1v1h-1zM26 25h1v1h-1zM31 25h1v1h-1zM33 25h1v1h-1zM34 25h1v1h-1zM37 25h1v1h-1zM38 25h1v1h-1zM42 25h1v1h-1zM43 25h1v1h-1zM44 25h1v1h-1zM45 25h1v1h-1zM46 25h1v1h-1zM3 26h1v1h-1zM4 26h1v1h-1zM6 26h1v1h-1zM7 26h1v1h-1zM8 26h1v1h-1zM9 26h1v1h-1zM10 26h1v1h-1zM14 26h1v1h-1zM15 26h1v1h-1zM17 26h1v1h-1zM18 26h1v1h-1zM20 26h1v1h-1zM21 26h1v1h-1zM22 26h1v1h-1zM23 26h1v1h-1zM24 26h1v1h-1zM25 26h1v1h-1zM26 26h1v1h-1zM30 26h1v1h-1zM33 26h1v1h-1zM34 26h1v1h-1zM36 26h1v1h-1zM37 26h1v1h-1zM38 26h1v1h-1zM39 26h1v1h-1zM40 26h1v1h-1zM41 26h1v1h-1zM42 26h1v1h-1zM3 27h1v1h-1zM4 27h1v1h-1zM5 27h1v1h-1zM6 27h1v1h-1zM7 27h1v1h-1zM13 27h1v1h-1zM15 27h1v1h-1zM18 27h1v1h-1zM19 27h1v1h-1zM21 27h1v1h-1zM24 27h1v1h-1zM25 27h1v1h-1zM27 27h1v1h-1zM29 27h1v1h-1zM32 27h1v1h-1zM33 27h1v1h-1zM35 27h1v1h-1zM37 27h1v1h-1zM38 27h1v1h-1zM40 27h1v1h-1zM41 27h1v1h-1zM43 27h1v1h-1zM44 27h1v1h-1zM45 27h1v1h-1zM2 28h1v1h-1zM6 28h1v1h-1zM7 28h1v1h-1zM8 28h1v1h-1zM9 28h1v1h-1zM12 28h1v1h-1zM13 28h1v1h-1zM15 28h1v1h-1zM17 28h1v1h-1zM21 28h1v1h-1zM22 28h1v1h-1zM25 28h1v1h-1zM26 28h1v1h-1zM28 28h1v1h-1zM29 28h1v1h-1zM31 28h1v1h-1zM32 28h1v1h-1zM33 28h1v1h-1zM35 28h1v1h-1zM37 28h1v1h-1zM38 28h1v1h-1zM39 28h1v1h-1zM42 28h1v1h-1zM43 28h1v1h-1zM4 29h1v1h-1zM5 29h1v1h-1zM14 29h1v1h-1zM15 29h1v1h-1zM16 29h1v1h-1zM17 29h1v1h-1zM18 29h1v1h-1zM19 29h1v1h-1zM21 29h1v1h-1zM22 29h1v1h-1zM23 29h1v1h-1zM27 29h1v1h-1zM28 29h1v1h-1zM33 29h1v1h-1zM35 29h1v1h-1zM37 29h1v1h-1zM38 29h1v1h-1zM39 29h1v1h-1zM42 29h1v1h-1zM44 29h1v1h-1zM45 29h1v1h-1zM46 29h1v1h-1zM2 30h1v1h-1zM3 30h1v1h-1zM5 30h1v1h-1zM6 30h1v1h-1zM7 30h1v1h-1zM8 30h1v1h-1zM13 30h1v1h-1zM14 30h1v1h-1zM16 30h1v1h-1zM18 30h1v1h-1zM22 30h1v1h-1zM25 30h1v1h-1zM27 30h1v1h-1zM31 30h1v1h-1zM34 30h1v1h-1zM36 30h1v1h-1zM37 30h1v1h-1zM40 30h1v1h-1zM42 30h1v1h-1zM45 30h1v1h-1zM4 31h1v1h-1zM5 31h1v1h-1zM6 31h1v1h-1zM10 31h1v1h-1zM11 31h1v1h-1zM13 31h1v1h-1zM14 31h1v1h-1zM17 31h1v1h-1zM18 31h1v1h-1zM20 31h1v1h-1zM26 31h1v1h-1zM31 31h1v1h-1zM32 31h1v1h-1zM34 31h1v1h-1zM35 31h1v1h-1zM36 31h1v1h-1zM37 31h1v1h-1zM38 31h1v1h-1zM39 31h1v1h-1zM40 31h1v1h-1zM41 31h1v1h-1zM42 31h1v1h-1zM45 31h1v1h-1zM46 31h1v1h-1zM4 32h1v1h-1zM5 32h1v1h-1zM6 32h1v1h-1zM7 32h1v1h-1zM8 32h1v1h-1zM9 32h1v1h-1zM12 32h1v1h-1zM15 32h1v1h-1zM16 32h1v1h-1zM19 32h1v1h-1zM20 32h1v1h-1zM24 32h1v1h-1zM26 32h1v1h-1zM28 32h1v1h-1zM30 32h1v1h-1zM31 32h1v1h-1zM32 32h1v1h-1zM34 32h1v1h-1zM35 32h1v1h-1zM40 32h1v1h-1zM41 32h1v1h-1zM42 32h1v1h-1zM43 32h1v1h-1zM44 32h1v1h-1zM46 32h1v1h-1zM2 33h1v1h-1zM5 33h1v1h-1zM6 33h1v1h-1zM7 33h1v1h-1zM10 33h1v1h-1zM12 33h1v1h-1zM14 33h1v1h-1zM17 33h1v1h-1zM18 33h1v1h-1zM20 33h1v1h-1zM21 33h1v1h-1zM22 33h1v1h-1zM24 33h1v1h-1zM25 33h1v1h-1zM31 33h1v1h-1zM41 33h1v1h-1zM44 33h1v1h-1zM2 34h1v1h-1zM4 34h1v1h-1zM5 34h1v1h-1zM7 34h1v1h-1zM8 34h1v1h-1zM9 34h1v1h-1zM15 34h1v1h-1zM16 34h1v1h-1zM18 34h1v1h-1zM19 34h1v1h-1zM20 34h1v1h-1zM21 34h1v1h-1zM25 34h1v1h-1zM26 34h1v1h-1zM29 34h1v1h-1zM30 34h1v1h-1zM31 34h1v1h-1zM33 34h1v1h-1zM35 34h1v1h-1zM36 34h1v1h-1zM38 34h1v1h-1zM40 34h1v1h-1zM45 34h1v1h-1zM46 34h1v1h-1zM6 35h1v1h-1zM7 35h1v1h-1zM10 35h1v1h-1zM11 35h1v1h-1zM13 35h1v1h-1zM14 35h1v1h-1zM19 35h1v1h-1zM21 35h1v1h-1zM22 35h1v1h-1zM24 35h1v1h-1zM26 35h1v1h-1zM27 35h1v1h-1zM29 35h1v1h-1zM30 35h1v1h-1zM31 35h1v1h-1zM36 35h1v1h-1zM37 35h1v1h-1zM39 35h1v1h-1zM40 35h1v1h-1zM41 35h1v1h-1zM42 35h1v1h-1zM43 35h1v1h-1zM44 35h1v1h-1zM6 36h1v1h-1zM8 36h1v1h-1zM11 36h1v1h-1zM13 36h1v1h-1zM15 36h1v1h-1zM19 36h1v1h-1zM23 36h1v1h-1zM28 36h1v1h-1zM29 36h1v1h-1zM30 36h1v1h-1zM31 36h1v1h-1zM35 36h1v1h-1zM36 36h1v1h-1zM37 36h1v1h-1zM38 36h1v1h-1zM39 36h1v1h-1zM40 36h1v1h-1zM41 36h1v1h-1zM42 36h1v1h-1zM43 36h1v1h-1zM44 36h1v1h-1zM46 36h1v1h-1zM3 37h1v1h-1zM4 37h1v1h-1zM5 37h1v1h-1zM6 37h1v1h-1zM10 37h1v1h-1zM11 37h1v1h-1zM13 37h1v1h-1zM14 37h1v1h-1zM15 37h1v1h-1zM16 37h1v1h-1zM18 37h1v1h-1zM21 37h1v1h-1zM25 37h1v1h-1zM29 37h1v1h-1zM30 37h1v1h-1zM32 37h1v1h-1zM34 37h1v1h-1zM37 37h1v1h-1zM40 37h1v1h-1zM41 37h1v1h-1zM42 37h1v1h-1zM44 37h1v1h-1zM45 37h1v1h-1zM2 38h1v1h-1zM5 38h1v1h-1zM6 38h1v1h-1zM8 38h1v1h-1zM13 38h1v1h-1zM14 38h1v1h-1zM16 38h1v1h-1zM17 38h1v1h-1zM19 38h1v1h-1zM22 38h1v1h-1zM23 38h1v1h-1zM24 38h1v1h-1zM25 38h1v1h-1zM26 38h1v1h-1zM31 38h1v1h-1zM34 38h1v1h-1zM36 38h1v1h-1zM37 38h1v1h-1zM38 38h1v1h-1zM39 38h1v1h-1zM40 38h1v1h-1zM41 38h1v1h-1zM42 38h1v1h-1zM10 39h1v1h-1zM11 39h1v1h-1zM13 39h1v1h-1zM16 39h1v1h-1zM20 39h1v1h-1zM21 39h1v1h-1zM22 39h1v1h-1zM26 39h1v1h-1zM27 39h1v1h-1zM33 39h1v1h-1zM35 39h1v1h-1zM38 39h1v1h-1zM42 39h1v1h-1zM45 39h1v1h-1zM2 40h1v1h-1zM3 40h1v1h-1zM4 40h1v1h-1zM5 40h1v1h-1zM6 40h1v1h-1zM7 40h1v1h-1zM8 40h1v1h-1zM10 40h1v1h-1zM12 40h1v1h-1zM13 40h1v1h-1zM15 40h1v1h-1zM16 40h1v1h-1zM17 40h1v1h-1zM18 40h1v1h-1zM20 40h1v1h-1zM22 40h1v1h-1zM24 40h1v1h-1zM26 40h1v1h-1zM31 40h1v1h-1zM32 40h1v1h-1zM34 40h1v1h-1zM36 40h1v1h-1zM38 40h1v1h-1zM40 40h1v1h-1zM42 40h1v1h-1zM44 40h1v1h-1zM45 40h1v1h-1zM2 41h1v1h-1zM8 41h1v1h-1zM13 41h1v1h-1zM14 41h1v1h-1zM18 41h1v1h-1zM19 41h1v1h-1zM20 41h1v1h-1zM21 41h1v1h-1zM22 41h1v1h-1zM26 41h1v1h-1zM28 41h1v1h-1zM29 41h1v1h-1zM36 41h1v1h-1zM37 41h1v1h-1zM38 41h1v1h-1zM42 41h1v1h-1zM43 41h1v1h-1zM44 41h1v1h-1zM46 41h1v1h-1zM2 42h1v1h-1zM4 42h1v1h-1zM5 42h1v1h-1zM6 42h1v1h-1zM8 42h1v1h-1zM10 42h1v1h-1zM12 42h1v1h-1zM13 42h1v1h-1zM17 42h1v1h-1zM18 42h1v1h-1zM22 42h1v1h-1zM23 42h1v1h-1zM24 42h1v1h-1zM25 42h1v1h-1zM26 42h1v1h-1zM28 42h1v1h-1zM29 42h1v1h-1zM30 42h1v1h-1zM32 42h1v1h-1zM33 42h1v1h-1zM34 42h1v1h-1zM36 42h1v1h-1zM37 42h1v1h-1zM38 42h1v1h-1zM39 42h1v1h-1zM40 42h1v1h-1zM41 42h1v1h-1zM42 42h1v1h-1zM43 42h1v1h-1zM45 42h1v1h-1zM46 42h1v1h-1zM2 43h1v1h-1zM4 43h1v1h-1zM5 43h1v1h-1zM6 43h1v1h-1zM8 43h1v1h-1zM10 43h1v1h-1zM12 43h1v1h-1zM13 43h1v1h-1zM14 43h1v1h-1zM15 43h1v1h-1zM17 43h1v1h-1zM20 43h1v1h-1zM21 43h1v1h-1zM22 43h1v1h-1zM23 43h1v1h-1zM25 43h1v1h-1zM26 43h1v1h-1zM27 43h1v1h-1zM28 43h1v1h-1zM29 43h1v1h-1zM31 43h1v1h-1zM33 43h1v1h-1zM34 43h1v1h-1zM35 43h1v1h-1zM36 43h1v1h-1zM37 43h1v1h-1zM41 43h1v1h-1zM43 43h1v1h-1zM44 43h1v1h-1zM45 43h1v1h-1zM46 43h1v1h-1zM2 44h1v1h-1zM4 44h1v1h-1zM5 44h1v1h-1zM6 44h1v1h-1zM8 44h1v1h-1zM12 44h1v1h-1zM13 44h1v1h-1zM14 44h1v1h-1zM16 44h1v1h-1zM18 44h1v1h-1zM23 44h1v1h-1zM25 44h1v1h-1zM26 44h1v1h-1zM28 44h1v1h-1zM33 44h1v1h-1zM34 44h1v1h-1zM35 44h1v1h-1zM36 44h1v1h-1zM38 44h1v1h-1zM42 44h1v1h-1zM43 44h1v1h-1zM45 44h1v1h-1zM46 44h1v1h-1zM2 45h1v1h-1zM8 45h1v1h-1zM12 45h1v1h-1zM13 45h1v1h-1zM18 45h1v1h-1zM19 45h1v1h-1zM23 45h1v1h-1zM24 45h1v1h-1zM26 45h1v1h-1zM28 45h1v1h-1zM29 45h1v1h-1zM35 45h1v1h-1zM36 45h1v1h-1zM37 45h1v1h-1zM39 45h1v1h-1zM40 45h1v1h-1zM41 45h1v1h-1zM43 45h1v1h-1zM44 45h1v1h-1zM45 45h1v1h-1zM46 45h1v1h-1zM2 46h1v1h-1zM3 46h1v1h-1zM4 46h1v1h-1zM5 46h1v1h-1zM6 46h1v1h-1zM7 46h1v1h-1zM8 46h1v1h-1zM12 46h1v1h-1zM14 46h1v1h-1zM18 46h1v1h-1zM19 46h1v1h-1zM20 46h1v1h-1zM21 46h1v1h-1zM22 46h1v1h-1zM26 46h1v1h-1zM27 46h1v1h-1zM30 46h1v1h-1zM35 46h1v1h-1zM36 46h1v1h-1zM38 46h1v1h-1zM40 46h1v1h-1zM41 46h1v1h-1zM42 46h1v1h-1z"/></svg>
